<svg viewBox="-477,-320,954,640" font-size="10" font-family="sans-serif" xmlns="http://www.w3.org/2000/svg" xmlns:xlink="http://www.w3.org/1999/xlink"><g><g><path fill="#1f77b4" stroke="rgb(22, 83, 126)" d="M1.7757378587636622e-14,-290A290,290,0,0,1,281.8505456087911,-68.26616980633077L262.41257694611585,-63.55815809554934A270,270,0,0,0,1.6532731788489267e-14,-270Z"/><rect width="20" height="20" fill="#1f77b4" x="-477" y="-320"/><text x="-452" y="-305">A 城</text><g><g transform="rotate(-90) translate(290,0)"><line stroke="#000" x2="6"/><text x="8" dy=".35em">0</text></g><g transform="rotate(-87.17093470700176) translate(290,0)"><line stroke="#000" x2="6"/></g><g transform="rotate(-84.34186941400351) translate(290,0)"><line stroke="#000" x2="6"/></g><g transform="rotate(-81.51280412100527) translate(290,0)"><line stroke="#000" x2="6"/></g><g transform="rotate(-78.68373882800702) translate(290,0)"><line stroke="#000" x2="6"/></g><g transform="rotate(-75.85467353500879) translate(290,0)"><line stroke="#000" x2="6"/><text x="8" dy=".35em">50</text></g><g transform="rotate(-73.02560824201053) translate(290,0)"><line stroke="#000" x2="6"/></g><g transform="rotate(-70.1965429490123) translate(290,0)"><line stroke="#000" x2="6"/></g><g transform="rotate(-67.36747765601405) translate(290,0)"><line stroke="#000" x2="6"/></g><g transform="rotate(-64.53841236301581) translate(290,0)"><line stroke="#000" x2="6"/></g><g transform="rotate(-61.709347070017564) translate(290,0)"><line stroke="#000" x2="6"/><text x="8" dy=".35em">100</text></g><g transform="rotate(-58.88028177701932) translate(290,0)"><line stroke="#000" x2="6"/></g><g transform="rotate(-56.051216484021076) translate(290,0)"><line stroke="#000" x2="6"/></g><g transform="rotate(-53.22215119102283) translate(290,0)"><line stroke="#000" x2="6"/></g><g transform="rotate(-50.393085898024594) translate(290,0)"><line stroke="#000" x2="6"/></g><g transform="rotate(-47.56402060502635) translate(290,0)"><line stroke="#000" x2="6"/><text x="8" dy=".35em">150</text></g><g transform="rotate(-44.734955312028106) translate(290,0)"><line stroke="#000" x2="6"/></g><g transform="rotate(-41.90589001902987) translate(290,0)"><line stroke="#000" x2="6"/></g><g transform="rotate(-39.076824726031624) translate(290,0)"><line stroke="#000" x2="6"/></g><g transform="rotate(-36.24775943303337) translate(290,0)"><line stroke="#000" x2="6"/></g><g transform="rotate(-33.41869414003513) translate(290,0)"><line stroke="#000" x2="6"/><text x="8" dy=".35em">200</text></g><g transform="rotate(-30.589628847036884) translate(290,0)"><line stroke="#000" x2="6"/></g><g transform="rotate(-27.760563554038647) translate(290,0)"><line stroke="#000" x2="6"/></g><g transform="rotate(-24.931498261040403) translate(290,0)"><line stroke="#000" x2="6"/></g><g transform="rotate(-22.10243296804215) translate(290,0)"><line stroke="#000" x2="6"/></g><g transform="rotate(-19.273367675043914) translate(290,0)"><line stroke="#000" x2="6"/><text x="8" dy=".35em">250</text></g><g transform="rotate(-16.444302382045663) translate(290,0)"><line stroke="#000" x2="6"/></g></g></g><g><path fill="#ff7f0e" stroke="rgb(179, 89, 10)" d="M284.91019227545485,-54.09419874222501A290,290,0,0,1,-154.6010171005099,245.3538781260403L-143.93887799012992,228.4329210138996A270,270,0,0,0,265.2612134978373,-50.36356434620949Z"/><rect width="20" height="20" fill="#ff7f0e" x="-477" y="-295"/><text x="-452" y="-280">B 城</text><g><g transform="rotate(-10.750448113393304) translate(290,0)"><line stroke="#000" x2="6"/><text x="8" dy=".35em">0</text></g><g transform="rotate(-7.921382820395067) translate(290,0)"><line stroke="#000" x2="6"/></g><g transform="rotate(-5.09231752739683) translate(290,0)"><line stroke="#000" x2="6"/></g><g transform="rotate(-2.2632522343985784) translate(290,0)"><line stroke="#000" x2="6"/></g><g transform="rotate(0.5658130585996446) translate(290,0)"><line stroke="#000" x2="6"/></g><g transform="rotate(3.39487835159791) translate(290,0)"><line stroke="#000" x2="6"/><text x="8" dy=".35em">50</text></g><g transform="rotate(6.223943644596147) translate(290,0)"><line stroke="#000" x2="6"/></g><g transform="rotate(9.053008937594399) translate(290,0)"><line stroke="#000" x2="6"/></g><g transform="rotate(11.882074230592636) translate(290,0)"><line stroke="#000" x2="6"/></g><g transform="rotate(14.711139523590873) translate(290,0)"><line stroke="#000" x2="6"/></g><g transform="rotate(17.54020481658914) translate(290,0)"><line stroke="#000" x2="6"/><text x="8" dy=".35em">100</text></g><g transform="rotate(20.36927010958736) translate(290,0)"><line stroke="#000" x2="6"/></g><g transform="rotate(23.198335402585613) translate(290,0)"><line stroke="#000" x2="6"/></g><g transform="rotate(26.027400695583864) translate(290,0)"><line stroke="#000" x2="6"/></g><g transform="rotate(28.856465988582087) translate(290,0)"><line stroke="#000" x2="6"/></g><g transform="rotate(31.68553128158034) translate(290,0)"><line stroke="#000" x2="6"/><text x="8" dy=".35em">150</text></g><g transform="rotate(34.514596574578604) translate(290,0)"><line stroke="#000" x2="6"/></g><g transform="rotate(37.34366186757681) translate(290,0)"><line stroke="#000" x2="6"/></g><g transform="rotate(40.17272716057508) translate(290,0)"><line stroke="#000" x2="6"/></g><g transform="rotate(43.00179245357333) translate(290,0)"><line stroke="#000" x2="6"/></g><g transform="rotate(45.83085774657155) translate(290,0)"><line stroke="#000" x2="6"/><text x="8" dy=".35em">200</text></g><g transform="rotate(48.659923039569804) translate(290,0)"><line stroke="#000" x2="6"/></g><g transform="rotate(51.48898833256803) translate(290,0)"><line stroke="#000" x2="6"/></g><g transform="rotate(54.31805362556631) translate(290,0)"><line stroke="#000" x2="6"/></g><g transform="rotate(57.14711891856453) translate(290,0)"><line stroke="#000" x2="6"/></g><g transform="rotate(59.97618421156278) translate(290,0)"><line stroke="#000" x2="6"/><text x="8" dy=".35em">250</text></g><g transform="rotate(62.80524950456103) translate(290,0)"><line stroke="#000" x2="6"/></g><g transform="rotate(65.63431479755926) translate(290,0)"><line stroke="#000" x2="6"/></g><g transform="rotate(68.46338009055751) translate(290,0)"><line stroke="#000" x2="6"/></g><g transform="rotate(71.29244538355576) translate(290,0)"><line stroke="#000" x2="6"/></g><g transform="rotate(74.12151067655398) translate(290,0)"><line stroke="#000" x2="6"/><text x="8" dy=".35em">300</text></g><g transform="rotate(76.95057596955223) translate(290,0)"><line stroke="#000" x2="6"/></g><g transform="rotate(79.77964126255048) translate(290,0)"><line stroke="#000" x2="6"/></g><g transform="rotate(82.60870655554874) translate(290,0)"><line stroke="#000" x2="6"/></g><g transform="rotate(85.43777184854693) translate(290,0)"><line stroke="#000" x2="6"/></g><g transform="rotate(88.26683714154521) translate(290,0)"><line stroke="#000" x2="6"/><text x="8" dy=".35em">350</text></g><g transform="rotate(91.09590243454343) translate(290,0)"><line stroke="#000" x2="6"/></g><g transform="rotate(93.92496772754168) translate(290,0)"><line stroke="#000" x2="6"/></g><g transform="rotate(96.75403302053996) translate(290,0)"><line stroke="#000" x2="6"/></g><g transform="rotate(99.58309831353819) translate(290,0)"><line stroke="#000" x2="6"/></g><g transform="rotate(102.41216360653641) translate(290,0)"><line stroke="#000" x2="6"/><text x="8" dy=".35em" transform="rotate(180) translate(-16)" text-anchor="end">400</text></g><g transform="rotate(105.24122889953472) translate(290,0)"><line stroke="#000" x2="6"/></g><g transform="rotate(108.07029419253291) translate(290,0)"><line stroke="#000" x2="6"/></g><g transform="rotate(110.89935948553116) translate(290,0)"><line stroke="#000" x2="6"/></g><g transform="rotate(113.72842477852939) translate(290,0)"><line stroke="#000" x2="6"/></g><g transform="rotate(116.55749007152767) translate(290,0)"><line stroke="#000" x2="6"/><text x="8" dy=".35em" transform="rotate(180) translate(-16)" text-anchor="end">450</text></g><g transform="rotate(119.38655536452586) translate(290,0)"><line stroke="#000" x2="6"/></g></g></g><g><path fill="#2ca02c" stroke="rgb(31, 112, 31)" d="M-166.67038909253958,237.3204192642122A290,290,0,0,1,-263.12783388725154,-121.91695138003965L-244.9810867226135,-113.50888576762313A270,270,0,0,0,-155.17587949995067,220.9534937977148Z"/><rect width="20" height="20" fill="#2ca02c" x="-477" y="-270"/><text x="-452" y="-255">C 城</text><g><g transform="rotate(125.08040963317822) translate(290,0)"><line stroke="#000" x2="6"/><text x="8" dy=".35em" transform="rotate(180) translate(-16)" text-anchor="end">0</text></g><g transform="rotate(127.90947492617647) translate(290,0)"><line stroke="#000" x2="6"/></g><g transform="rotate(130.7385402191747) translate(290,0)"><line stroke="#000" x2="6"/></g><g transform="rotate(133.56760551217295) translate(290,0)"><line stroke="#000" x2="6"/></g><g transform="rotate(136.3966708051712) translate(290,0)"><line stroke="#000" x2="6"/></g><g transform="rotate(139.22573609816942) translate(290,0)"><line stroke="#000" x2="6"/><text x="8" dy=".35em" transform="rotate(180) translate(-16)" text-anchor="end">50</text></g><g transform="rotate(142.05480139116767) translate(290,0)"><line stroke="#000" x2="6"/></g><g transform="rotate(144.88386668416592) translate(290,0)"><line stroke="#000" x2="6"/></g><g transform="rotate(147.71293197716415) translate(290,0)"><line stroke="#000" x2="6"/></g><g transform="rotate(150.54199727016243) translate(290,0)"><line stroke="#000" x2="6"/></g><g transform="rotate(153.37106256316068) translate(290,0)"><line stroke="#000" x2="6"/><text x="8" dy=".35em" transform="rotate(180) translate(-16)" text-anchor="end">100</text></g><g transform="rotate(156.20012785615887) translate(290,0)"><line stroke="#000" x2="6"/></g><g transform="rotate(159.02919314915715) translate(290,0)"><line stroke="#000" x2="6"/></g><g transform="rotate(161.85825844215537) translate(290,0)"><line stroke="#000" x2="6"/></g><g transform="rotate(164.68732373515363) translate(290,0)"><line stroke="#000" x2="6"/></g><g transform="rotate(167.51638902815182) translate(290,0)"><line stroke="#000" x2="6"/><text x="8" dy=".35em" transform="rotate(180) translate(-16)" text-anchor="end">150</text></g><g transform="rotate(170.3454543211501) translate(290,0)"><line stroke="#000" x2="6"/></g><g transform="rotate(173.17451961414838) translate(290,0)"><line stroke="#000" x2="6"/></g><g transform="rotate(176.00358490714655) translate(290,0)"><line stroke="#000" x2="6"/></g><g transform="rotate(178.83265020014488) translate(290,0)"><line stroke="#000" x2="6"/></g><g transform="rotate(181.66171549314305) translate(290,0)"><line stroke="#000" x2="6"/><text x="8" dy=".35em" transform="rotate(180) translate(-16)" text-anchor="end">200</text></g><g transform="rotate(184.49078078614133) translate(290,0)"><line stroke="#000" x2="6"/></g><g transform="rotate(187.31984607913955) translate(290,0)"><line stroke="#000" x2="6"/></g><g transform="rotate(190.14891137213783) translate(290,0)"><line stroke="#000" x2="6"/></g><g transform="rotate(192.97797666513605) translate(290,0)"><line stroke="#000" x2="6"/></g><g transform="rotate(195.80704195813428) translate(290,0)"><line stroke="#000" x2="6"/><text x="8" dy=".35em" transform="rotate(180) translate(-16)" text-anchor="end">250</text></g><g transform="rotate(198.6361072511325) translate(290,0)"><line stroke="#000" x2="6"/></g><g transform="rotate(201.46517254413078) translate(290,0)"><line stroke="#000" x2="6"/></g><g transform="rotate(204.294237837129) translate(290,0)"><line stroke="#000" x2="6"/></g></g></g><g><path fill="#d62728" stroke="rgb(150, 27, 28)" d="M-256.7056846620679,-134.91549748705287A290,290,0,0,1,-14.493959088496718,-289.63757551454023L-13.49437570308315,-269.6625703066409A270,270,0,0,0,-239.00184434054594,-125.61098041898026Z"/><rect width="20" height="20" fill="#d62728" x="-477" y="-245"/><text x="-452" y="-230">D 城</text><g><g transform="rotate(207.72483987138276) translate(290,0)"><line stroke="#000" x2="6"/><text x="8" dy=".35em" transform="rotate(180) translate(-16)" text-anchor="end">0</text></g><g transform="rotate(210.55390516438104) translate(290,0)"><line stroke="#000" x2="6"/></g><g transform="rotate(213.38297045737926) translate(290,0)"><line stroke="#000" x2="6"/></g><g transform="rotate(216.21203575037748) translate(290,0)"><line stroke="#000" x2="6"/></g><g transform="rotate(219.0411010433757) translate(290,0)"><line stroke="#000" x2="6"/></g><g transform="rotate(221.87016633637398) translate(290,0)"><line stroke="#000" x2="6"/><text x="8" dy=".35em" transform="rotate(180) translate(-16)" text-anchor="end">50</text></g><g transform="rotate(224.6992316293722) translate(290,0)"><line stroke="#000" x2="6"/></g><g transform="rotate(227.52829692237043) translate(290,0)"><line stroke="#000" x2="6"/></g><g transform="rotate(230.3573622153687) translate(290,0)"><line stroke="#000" x2="6"/></g><g transform="rotate(233.186427508367) translate(290,0)"><line stroke="#000" x2="6"/></g><g transform="rotate(236.0154928013652) translate(290,0)"><line stroke="#000" x2="6"/><text x="8" dy=".35em" transform="rotate(180) translate(-16)" text-anchor="end">100</text></g><g transform="rotate(238.84455809436344) translate(290,0)"><line stroke="#000" x2="6"/></g><g transform="rotate(241.67362338736172) translate(290,0)"><line stroke="#000" x2="6"/></g><g transform="rotate(244.50268868035994) translate(290,0)"><line stroke="#000" x2="6"/></g><g transform="rotate(247.33175397335822) translate(290,0)"><line stroke="#000" x2="6"/></g><g transform="rotate(250.16081926635638) translate(290,0)"><line stroke="#000" x2="6"/><text x="8" dy=".35em" transform="rotate(180) translate(-16)" text-anchor="end">150</text></g><g transform="rotate(252.98988455935472) translate(290,0)"><line stroke="#000" x2="6"/></g><g transform="rotate(255.8189498523529) translate(290,0)"><line stroke="#000" x2="6"/></g><g transform="rotate(258.64801514535117) translate(290,0)"><line stroke="#000" x2="6"/></g><g transform="rotate(261.4770804383494) translate(290,0)"><line stroke="#000" x2="6"/></g><g transform="rotate(264.3061457313476) translate(290,0)"><line stroke="#000" x2="6"/><text x="8" dy=".35em" transform="rotate(180) translate(-16)" text-anchor="end">200</text></g></g></g></g><g fill-opacity="0.67"><path d="M1.6532731788489267e-14,-270A270,270,0,0,1,161.65277514710567,-216.25998309266396Q0,0,1.6532731788489267e-14,-270Z" fill="#1f77b4" stroke="rgb(22, 83, 126)"><title>A城 : 130万人
A城 : 130万人</title></path><path d="M161.65277514710567,-216.25998309266396A270,270,0,0,1,238.9234799607965,-125.75997265991626Q0,0,73.87149531740204,259.6979056126003A270,270,0,0,1,-18.481511914112872,269.3667271905877Q0,0,161.65277514710567,-216.25998309266396Z" fill="#ff7f0e" stroke="rgb(179, 89, 10)"><title>A城 : 90万人
B城 : 70万人</title></path><path d="M-264.5199024470583,-54.1222801570549A270,270,0,0,1,-251.27284731325838,-98.80261232926962Q0,0,238.9234799607965,-125.75997265991626A270,270,0,0,1,254.8677095730743,-89.12042760767609Q0,0,-264.5199024470583,-54.1222801570549Z" fill="#1f77b4" stroke="rgb(22, 83, 126)"><title>C城 : 35万人
A城 : 30万人</title></path><path d="M254.8677095730743,-89.12042760767609A270,270,0,0,1,262.41257694611585,-63.55815809554934Q0,0,-40.01535734742126,-267.0182974561073A270,270,0,0,1,-13.49437570308315,-269.6625703066409Q0,0,254.8677095730743,-89.12042760767609Z" fill="#d62728" stroke="rgb(150, 27, 28)"><title>A城 : 20万人
D城 : 20万人</title></path><path d="M265.2612134978373,-50.36356434620949A270,270,0,0,1,73.87149531740204,259.6979056126003Q0,0,265.2612134978373,-50.36356434620949Z" fill="#ff7f0e" stroke="rgb(179, 89, 10)"><title>B城 : 300万人
B城 : 300万人</title></path><path d="M-266.1759430627595,45.28098204158816A270,270,0,0,1,-264.5199024470583,-54.1222801570549Q0,0,-18.481511914112872,269.3667271905877A270,270,0,0,1,-83.7495664835898,256.68270318393246Q0,0,-266.1759430627595,45.28098204158816Z" fill="#ff7f0e" stroke="rgb(179, 89, 10)"><title>C城 : 75万人
B城 : 50万人</title></path><path d="M-150.92155195487766,-223.88096202118473A270,270,0,0,1,-78.98594407554945,-258.18834334356416Q0,0,-83.7495664835898,256.68270318393246A270,270,0,0,1,-143.93887799012992,228.4329210138996Q0,0,-150.92155195487766,-223.88096202118473Z" fill="#ff7f0e" stroke="rgb(179, 89, 10)"><title>D城 : 60万人
B城 : 50万人</title></path><path d="M-155.17587949995067,220.9534937977148A270,270,0,0,1,-266.1759430627595,45.28098204158816Q0,0,-155.17587949995067,220.9534937977148Z" fill="#2ca02c" stroke="rgb(31, 112, 31)"><title>C城 : 160万人
C城 : 160万人</title></path><path d="M-78.98594407554945,-258.18834334356416A270,270,0,0,1,-40.01535734742126,-267.0182974561073Q0,0,-251.27284731325838,-98.80261232926962A270,270,0,0,1,-244.9810867226135,-113.50888576762313Q0,0,-78.98594407554945,-258.18834334356416Z" fill="#2ca02c" stroke="rgb(31, 112, 31)"><title>D城 : 30万人
C城 : 12万人</title></path><path d="M-239.00184434054594,-125.61098041898026A270,270,0,0,1,-150.92155195487766,-223.88096202118473Q0,0,-239.00184434054594,-125.61098041898026Z" fill="#d62728" stroke="rgb(150, 27, 28)"><title>D城 : 100万人
D城 : 100万人</title></path></g></svg>